<svg width="16" height="28" viewBox="0 0 16 28" fill="none" xmlns="http://www.w3.org/2000/svg">
<path fill-rule="evenodd" clip-rule="evenodd" d="M5.17647 0.277121V4.51613H4.85029C4.58235 4.51613 4.49824 4.54091 4.37971 4.65472C4.23529 4.79325 4.23529 4.79342 4.23529 6.00956V7.22581H0.288765L0 7.50293V27.7229L0.288765 28H15.7112L16 27.7229V7.50293L15.7112 7.22581H11.7647V6.00956C11.7647 4.79342 11.7647 4.79325 11.6203 4.65472C11.5018 4.54091 11.4176 4.51613 11.1497 4.51613H10.8235V0.277121L10.5348 0H5.46524L5.17647 0.277121ZM9.88235 4.51613H6.11765V0.903226H9.88235V4.51613ZM7.67382 2.39665C7.382 2.67665 7.58876 3.16129 8 3.16129C8.24182 3.16129 8.47059 2.94175 8.47059 2.70968C8.47059 2.4776 8.24182 2.25806 8 2.25806C7.88541 2.25806 7.76482 2.30927 7.67382 2.39665ZM15.0588 27.0968H0.941176V8.12903H15.0588V27.0968ZM1.88235 9.30938V25.9164L2.17112 26.1935H13.8289L14.1176 25.9164V9.30938L13.8289 9.03226H2.17112L1.88235 9.30938Z" fill="#B1404B"/>
</svg>
